# xmcd
#
# Track frame offsets:
#	150
#	12815
#	23957
#	40132
#	53936
#	65988
#	79396
#	94215
#	106647
#	119643
#	134396
#	146203
#	157861
#	171870
#	181337
#	193677
#	205757
#	218456
#	230348
#	242043
#
# Disc length: 3425 seconds
# Revision: 0
# Processed by: cddbd v1.5.2PL0 Copyright (c) Steve Scherf et al.
# Submitted via: dBpowerAMP V12.0
#
DISCID=1a0d5f14
DTITLE=Ronny CD6 - Das Beste - Das große Lebenswerk
DYEAR=2016
DGENRE=Volkstümlich
TTITLE0=Hohe Tannen
TTITLE1=Im schönsten Wiesengrunde
TTITLE2=Es hängt ein Pferdehalfter an der Wand
TTITLE3=In einem kühlen Grunde
TTITLE4=Hey Liley, Liley Lo
TTITLE5=Winde wehn
TTITLE6=Adios, My Darling
TTITLE7=Vergiss mich, mein Liebling
TTITLE8=Mit dem Wind muss ich weiterzieh'n
TTITLE9=Doch dann kamst Du
TTITLE10=Donna Gelina (Town Of El Paso)
TTITLE11=Anna Maria
TTITLE12=Mir geht's gut
TTITLE13=Oh Susanna (Du bist mein Sonnenschein)
TTITLE14=Maddalena
TTITLE15=Wenn der Tag zu Ende geht
TTITLE16=Lachen und weinen
TTITLE17=Steh ich in finsterer Mitternacht
TTITLE18=Dunja, Du
TTITLE19=The Green Valleys of Home
EXTD=
EXTT0=
EXTT1=
EXTT2=
EXTT3=
EXTT4=
EXTT5=
EXTT6=
EXTT7=
EXTT8=
EXTT9=
EXTT10=
EXTT11=
EXTT12=
EXTT13=
EXTT14=
EXTT15=
EXTT16=
EXTT17=
EXTT18=
EXTT19=
PLAYORDER=
